<svg height="1726" width="720" xmlns="http://www.w3.org/2000/svg">
<rect height="1726" fill="#555" width="720"></rect>
<text fill="#7f7" font-family="Courier New" font-size="12" xml:space="preserve">
<tspan x="10" y="26">13 megabytes installed</tspan>
<tspan x="10" y="42"></tspan>
<tspan x="10" y="58">node_modules</tspan>
<tspan x="10" y="74">└─┬ soap@0.19.0 </tspan>
<tspan x="10" y="90">  ├── compress@0.99.0 </tspan>
<tspan x="10" y="106">  ├─┬ concat-stream@1.6.0 </tspan>
<tspan x="10" y="122">  │ ├── inherits@2.0.3 </tspan>
<tspan x="10" y="138">  │ ├─┬ readable-stream@2.2.9 </tspan>
<tspan x="10" y="154">  │ │ ├── buffer-shims@1.0.0 </tspan>
<tspan x="10" y="170">  │ │ ├── core-util-is@1.0.2 </tspan>
<tspan x="10" y="186">  │ │ ├── isarray@1.0.0 </tspan>
<tspan x="10" y="202">  │ │ ├── process-nextick-args@1.0.7 </tspan>
<tspan x="10" y="218">  │ │ ├── string_decoder@1.0.0 </tspan>
<tspan x="10" y="234">  │ │ └── util-deprecate@1.0.2 </tspan>
<tspan x="10" y="250">  │ └── typedarray@0.0.6 </tspan>
<tspan x="10" y="266">  ├── debug@0.7.4 </tspan>
<tspan x="10" y="282">  ├── ejs@2.5.6 </tspan>
<tspan x="10" y="298">  ├─┬ finalhandler@0.5.1 </tspan>
<tspan x="10" y="314">  │ ├─┬ debug@2.2.0 </tspan>
<tspan x="10" y="330">  │ │ └── ms@0.7.1 </tspan>
<tspan x="10" y="346">  │ ├── escape-html@1.0.3 </tspan>
<tspan x="10" y="362">  │ ├─┬ on-finished@2.3.0 </tspan>
<tspan x="10" y="378">  │ │ └── ee-first@1.1.1 </tspan>
<tspan x="10" y="394">  │ ├── statuses@1.3.1 </tspan>
<tspan x="10" y="410">  │ └── unpipe@1.0.0 </tspan>
<tspan x="10" y="426">  ├── lodash@3.10.1 </tspan>
<tspan x="10" y="442">  ├── optional@0.1.3 </tspan>
<tspan x="10" y="458">  ├─┬ request@2.81.0 </tspan>
<tspan x="10" y="474">  │ ├── aws-sign2@0.6.0 </tspan>
<tspan x="10" y="490">  │ ├── aws4@1.6.0 </tspan>
<tspan x="10" y="506">  │ ├── caseless@0.12.0 </tspan>
<tspan x="10" y="522">  │ ├─┬ combined-stream@1.0.5 </tspan>
<tspan x="10" y="538">  │ │ └── delayed-stream@1.0.0 </tspan>
<tspan x="10" y="554">  │ ├── extend@3.0.0 </tspan>
<tspan x="10" y="570">  │ ├── forever-agent@0.6.1 </tspan>
<tspan x="10" y="586">  │ ├─┬ form-data@2.1.4 </tspan>
<tspan x="10" y="602">  │ │ └── asynckit@0.4.0 </tspan>
<tspan x="10" y="618">  │ ├─┬ har-validator@4.2.1 </tspan>
<tspan x="10" y="634">  │ │ ├─┬ ajv@4.11.7 </tspan>
<tspan x="10" y="650">  │ │ │ ├── co@4.6.0 </tspan>
<tspan x="10" y="666">  │ │ │ └─┬ json-stable-stringify@1.0.1 </tspan>
<tspan x="10" y="682">  │ │ │   └── jsonify@0.0.0 </tspan>
<tspan x="10" y="698">  │ │ └── har-schema@1.0.5 </tspan>
<tspan x="10" y="714">  │ ├─┬ hawk@3.1.3 </tspan>
<tspan x="10" y="730">  │ │ ├── boom@2.10.1 </tspan>
<tspan x="10" y="746">  │ │ ├── cryptiles@2.0.5 </tspan>
<tspan x="10" y="762">  │ │ ├── hoek@2.16.3 </tspan>
<tspan x="10" y="778">  │ │ └── sntp@1.0.9 </tspan>
<tspan x="10" y="794">  │ ├─┬ http-signature@1.1.1 </tspan>
<tspan x="10" y="810">  │ │ ├── assert-plus@0.2.0 </tspan>
<tspan x="10" y="826">  │ │ ├─┬ jsprim@1.4.0 </tspan>
<tspan x="10" y="842">  │ │ │ ├── assert-plus@1.0.0 </tspan>
<tspan x="10" y="858">  │ │ │ ├── extsprintf@1.0.2 </tspan>
<tspan x="10" y="874">  │ │ │ ├── json-schema@0.2.3 </tspan>
<tspan x="10" y="890">  │ │ │ └── verror@1.3.6 </tspan>
<tspan x="10" y="906">  │ │ └─┬ sshpk@1.13.0 </tspan>
<tspan x="10" y="922">  │ │   ├── asn1@0.2.3 </tspan>
<tspan x="10" y="938">  │ │   ├── assert-plus@1.0.0 </tspan>
<tspan x="10" y="954">  │ │   ├── bcrypt-pbkdf@1.0.1 </tspan>
<tspan x="10" y="970">  │ │   ├─┬ dashdash@1.14.1 </tspan>
<tspan x="10" y="986">  │ │   │ └── assert-plus@1.0.0 </tspan>
<tspan x="10" y="1002">  │ │   ├── ecc-jsbn@0.1.1 </tspan>
<tspan x="10" y="1018">  │ │   ├─┬ getpass@0.1.6 </tspan>
<tspan x="10" y="1034">  │ │   │ └── assert-plus@1.0.0 </tspan>
<tspan x="10" y="1050">  │ │   ├── jodid25519@1.0.2 </tspan>
<tspan x="10" y="1066">  │ │   ├── jsbn@0.1.1 </tspan>
<tspan x="10" y="1082">  │ │   └── tweetnacl@0.14.5 </tspan>
<tspan x="10" y="1098">  │ ├── is-typedarray@1.0.0 </tspan>
<tspan x="10" y="1114">  │ ├── isstream@0.1.2 </tspan>
<tspan x="10" y="1130">  │ ├── json-stringify-safe@5.0.1 </tspan>
<tspan x="10" y="1146">  │ ├─┬ mime-types@2.1.15 </tspan>
<tspan x="10" y="1162">  │ │ └── mime-db@1.27.0 </tspan>
<tspan x="10" y="1178">  │ ├── oauth-sign@0.8.2 </tspan>
<tspan x="10" y="1194">  │ ├── performance-now@0.2.0 </tspan>
<tspan x="10" y="1210">  │ ├── qs@6.4.0 </tspan>
<tspan x="10" y="1226">  │ ├── safe-buffer@5.0.1 </tspan>
<tspan x="10" y="1242">  │ ├── stringstream@0.0.5 </tspan>
<tspan x="10" y="1258">  │ ├─┬ tough-cookie@2.3.2 </tspan>
<tspan x="10" y="1274">  │ │ └── punycode@1.4.1 </tspan>
<tspan x="10" y="1290">  │ └── tunnel-agent@0.6.0 </tspan>
<tspan x="10" y="1306">  ├── sax@1.2.2 </tspan>
<tspan x="10" y="1322">  ├── selectn@0.9.6 </tspan>
<tspan x="10" y="1338">  ├─┬ serve-static@1.12.1 </tspan>
<tspan x="10" y="1354">  │ ├── encodeurl@1.0.1 </tspan>
<tspan x="10" y="1370">  │ ├── parseurl@1.3.1 </tspan>
<tspan x="10" y="1386">  │ └─┬ send@0.15.1 </tspan>
<tspan x="10" y="1402">  │   ├── debug@2.6.1 </tspan>
<tspan x="10" y="1418">  │   ├── depd@1.1.0 </tspan>
<tspan x="10" y="1434">  │   ├── destroy@1.0.4 </tspan>
<tspan x="10" y="1450">  │   ├── etag@1.8.0 </tspan>
<tspan x="10" y="1466">  │   ├── fresh@0.5.0 </tspan>
<tspan x="10" y="1482">  │   ├─┬ http-errors@1.6.1 </tspan>
<tspan x="10" y="1498">  │   │ └── setprototypeof@1.0.3 </tspan>
<tspan x="10" y="1514">  │   ├── mime@1.3.4 </tspan>
<tspan x="10" y="1530">  │   ├── ms@0.7.2 </tspan>
<tspan x="10" y="1546">  │   └── range-parser@1.2.0 </tspan>
<tspan x="10" y="1562">  ├─┬ strip-bom@0.3.1 </tspan>
<tspan x="10" y="1578">  │ ├── first-chunk-stream@0.1.0 </tspan>
<tspan x="10" y="1594">  │ └── is-utf8@0.2.1 </tspan>
<tspan x="10" y="1610">  ├─┬ ursa@0.9.4 </tspan>
<tspan x="10" y="1626">  │ ├── bindings@1.2.1 </tspan>
<tspan x="10" y="1642">  │ └── nan@2.6.2 </tspan>
<tspan x="10" y="1658">  ├── uuid@3.0.1 </tspan>
<tspan x="10" y="1674">  └─┬ xml-crypto@0.8.5 </tspan>
<tspan x="10" y="1690">    ├── xmldom@0.1.19 </tspan>
<tspan x="10" y="1706">    └── xpath.js@1.0.7</tspan>
</text>
</svg>
